FFmpeg version SVN-r25716, Copyright (c) 2000-2010 the FFmpeg developers  built on Nov 10 2010 12:23:18 with gcc 4.1.2 20080704 (Red Hat 4.1.2-48)  configuration: --enable-libmp3lame --enable-shared --disable-mmx --arch=x86_64  libavutil     50.33. 0 / 50.33. 0  libavcore      0.12. 1 /  0.12. 1  libavcodec    52.94. 4 / 52.94. 4  libavformat   52.84. 0 / 52.84. 0  libavdevice   52. 2. 2 / 52. 2. 2  libavfilter    1.59. 0 /  1.59. 0  libswscale     0.12. 0 /  0.12. 0Seems stream 0 codec frame rate differs from container frame rate: 1000.00 (1000/1) -> 12.00 (12/1)Input #0, mov,mp4,m4a,3gp,3g2,mj2, from '/RAID10/data/converted_video_files/12025.mov':  Metadata:    major_brand     : qt      minor_version   : 537199360    compatible_brands: qt    Duration: 00:00:13.33, start: 0.000000, bitrate: 14920 kb/s    Stream #0.0(eng): Video: mpeg4, yuv420p, 678x518 [PAR 1:1 DAR 339:259], 14919 kb/s, 12 fps, 12 tbr, 600 tbn, 1k tbc[buffer @ 0x1ddfbc70] w:678 h:518 pixfmt:yuv420pOutput #0, flv, to '/RAID10/data/converted_video_files/12025.flv':  Metadata:    encoder         : Lavf52.84.0    Stream #0.0(eng): Video: flv, yuv420p, 678x518 [PAR 1:1 DAR 339:259], q=2-31, 600 kb/s, 1k tbn, 24 tbcStream mapping:  Stream #0.0 -> #0.0Press [q] to stop encodingframe=   20 fps=  0 q=31.0 size=     769kB time=1.62 bitrate=3879.6kbits/s    frame=   47 fps= 44 q=31.0 size=     948kB time=3.87 bitrate=2005.0kbits/s    frame=   77 fps= 49 q=31.0 size=    1134kB time=6.37 bitrate=1456.9kbits/s    frame=  108 fps= 52 q=31.0 size=    1320kB time=8.96 bitrate=1207.1kbits/s    frame=  135 fps= 52 q=31.0 size=    1520kB time=11.21 bitrate=1111.0kbits/s    frame=  154 fps= 49 q=31.0 size=    1668kB time=12.79 bitrate=1068.2kbits/s    frame=  160 fps= 48 q=31.0 Lsize=    1725kB time=13.29 bitrate=1063.0kbits/s    video:1722kB audio:0kB global headers:0kB muxing overhead 0.157077%